<svg xmlns="http://www.w3.org/2000/svg" width="42" height="91" fill="none" viewBox="0 0 42 91"><path fill="#fff" d="M19.158 14.84c.33.708 3.214 1.63 6.237.81 3.103-.837 6.14-4.22 6.14-4.22s-4.328-1.394-7.43-.552q-.554.153-1.06.36a9 9 0 0 0 .436-1.05c1.037-3.045-.076-7.453-.076-7.453s-3.57 2.814-4.607 5.859c-.989 2.89-.308 5.765.36 6.246"/><path fill="#fff" d="M34.128 6.313C37.044 4.452 39.074 0 39.074 0s-4.892-.036-7.808 1.825-4.278 4.946-3.851 5.614 3.797.735 6.713-1.126m-22.96 20.031c.49.712 3.816 1.193 6.972-.25 3.246-1.486 5.948-5.742 5.948-5.742s-4.99-.735-8.236.752c-.388.178-.748.378-1.095.588.115-.397.213-.802.284-1.23.58-3.52-1.442-8.142-1.442-8.142s-3.397 3.731-3.971 7.253c-.548 3.343.721 6.366 1.54 6.77"/><path fill="#fff" d="M6.575 40.37c.788.663 4.768.155 7.938-2.516 3.254-2.742 5.008-8.503 5.008-8.503s-5.974.753-9.229 3.495a12 12 0 0 0-1.068 1.02q.014-.734-.067-1.5c-.458-4.234-4.26-8.9-4.26-8.9s-2.711 5.378-2.253 9.607c.436 4.03 2.858 7.096 3.931 7.297"/><path fill="#fff" d="M7.43 53.921c.124-.058.244-.196.351-.383 1.385-.173 4.328-1.86 6.166-4.83 2.186-3.526 1.964-9.322 1.964-9.322s-5.405 2.569-7.586 6.094c-.299.481-.548.966-.762 1.456a11 11 0 0 0-.454-1.077C5.297 42.15.182 39.105.182 39.105s-.815 5.748 1.002 9.456c1.812 3.708 5.36 5.765 6.246 5.36"/><path fill="#fff" d="M12.926 67.25c.093-.093.151-.262.182-.471 1.18-.623 3.224-3.165 3.838-6.54.73-4.002-1.487-9.309-1.487-9.309s-3.944 4.19-4.67 8.187a12 12 0 0 0-.174 1.603c-.245-.29-.498-.574-.783-.85-2.916-2.836-8.557-3.963-8.557-3.963s1.274 5.61 4.19 8.446c2.916 2.84 6.811 3.57 7.46 2.898m7.717 9.832c.935-.708 2.244-3.112 2.07-5.912-.205-3.312-3.357-7.11-3.357-7.11s-2.666 4.07-2.457 7.386c.027.459.103.895.196 1.322-.29-.187-.579-.374-.9-.543-3.25-1.7-8.6-1.527-8.6-1.527s2.364 4.212 5.618 5.912c3.25 1.7 6.936 1.54 7.381.886.054-.089.067-.24.05-.414m10.777 7.666c.017-.098-.023-.223-.09-.365.463-.86.664-3.246-.36-5.552-1.207-2.728-4.741-5.044-4.741-5.044s-.668 4.172.543 6.9c.164.38.36.726.565 1.056-.271-.076-.548-.156-.837-.205-2.938-.52-6.83 1.122-6.83 1.122s3.09 2.88 6.029 3.401c2.933.526 5.6-.636 5.72-1.313m10.304 2.608c.196-.886-.294-3.063-1.923-4.848-1.928-2.11-5.943-3.223-5.943-3.223s.552 3.891 2.48 6.001q.401.435.836.788c-.28.004-.56.009-.854.04-2.943.32-6.17 2.818-6.17 2.818s3.757 1.74 6.7 1.42 5.146-2.065 5.066-2.697c-.01-.085-.085-.192-.192-.299"/></svg>