<svg width="42" height="91" viewBox="0 0 42 91" fill="none" xmlns="http://www.w3.org/2000/svg">
<path d="M19.1581 14.8397C19.4876 15.5477 22.3724 16.4691 25.3953 15.65C28.4982 14.8131 31.5344 11.4297 31.5344 11.4297C31.5344 11.4297 27.2071 10.0362 24.1043 10.8777C23.7348 10.98 23.3831 11.1002 23.0447 11.2383C23.2049 10.9044 23.3564 10.5571 23.481 10.1876C24.5182 7.14252 23.4053 2.73517 23.4053 2.73517C23.4053 2.73517 19.8349 5.5488 18.7976 8.59378C17.8092 11.4831 18.4903 14.359 19.1581 14.8397Z" fill="white"/>
<path d="M34.1284 6.31283C37.0443 4.45196 39.0743 4.84045e-05 39.0743 4.84045e-05C39.0743 4.84045e-05 34.1817 -0.0355669 31.2657 1.82536C28.3498 3.68627 26.9875 6.77131 27.4148 7.43916C27.8422 8.10695 31.2123 8.1737 34.1284 6.31283Z" fill="white"/>
<path d="M11.1684 26.3438C11.6581 27.056 14.9836 27.5369 18.1401 26.0944C21.3855 24.6075 24.0877 20.3516 24.0877 20.3516C24.0877 20.3516 19.0972 19.6171 15.8518 21.104C15.4645 21.282 15.1039 21.4824 14.7566 21.6916C14.8723 21.2953 14.9703 20.8903 15.0415 20.4629C15.6203 16.9415 13.5991 12.3205 13.5991 12.3205C13.5991 12.3205 10.2023 16.0511 9.62805 19.5726C9.08047 22.916 10.3492 25.9386 11.1684 26.3438Z" fill="white"/>
<path d="M6.57521 40.3696C7.3632 41.0329 11.3432 40.5254 14.5129 37.8543C17.7672 35.1121 19.5211 29.3514 19.5211 29.3514C19.5211 29.3514 13.5467 30.1037 10.2924 32.8461C9.90507 33.171 9.55336 33.5138 9.22393 33.8656C9.23283 33.3758 9.21057 32.8772 9.15715 32.3653C8.69861 28.1316 4.8967 23.4659 4.8967 23.4659C4.8967 23.4659 2.18554 28.8438 2.64402 33.0731C3.0803 37.1021 5.50233 40.1694 6.57521 40.3696Z" fill="white"/>
<path d="M7.42962 53.9211C7.55427 53.8632 7.67445 53.7252 7.78131 53.5383C9.16578 53.3646 12.1085 51.6774 13.9472 48.7079C16.1331 45.182 15.9105 39.3857 15.9105 39.3857C15.9105 39.3857 10.5059 41.9545 8.32459 45.4804C8.02631 45.9613 7.77701 46.4464 7.56332 46.9361C7.42976 46.5756 7.2873 46.215 7.10923 45.8588C5.29738 42.1504 0.182166 39.1053 0.182166 39.1053C0.182166 39.1053 -0.632519 44.8526 1.18384 48.561C2.99569 52.2694 6.54363 54.3262 7.42962 53.9211Z" fill="white"/>
<path d="M12.9259 67.2509C13.0194 67.1573 13.0773 66.9882 13.1085 66.7789C14.2882 66.1557 16.3316 63.6137 16.946 60.2392C17.6761 56.237 15.459 50.9303 15.459 50.9303C15.459 50.9303 11.5147 55.1196 10.789 59.1173C10.691 59.6604 10.6376 60.199 10.6154 60.7199C10.3705 60.4305 10.1168 60.1456 9.83185 59.8695C6.91586 57.0337 1.27539 55.9074 1.27539 55.9074C1.27539 55.9074 2.54863 61.5168 5.46462 64.3526C8.38059 67.1929 12.276 67.9231 12.9259 67.2509Z" fill="white"/>
<path d="M20.6421 77.083C21.577 76.3752 22.8859 73.9711 22.7122 71.1709C22.5074 67.8588 19.3555 64.0613 19.3555 64.0613C19.3555 64.0613 16.6889 68.1303 16.8981 71.447C16.9249 71.9055 17.0006 72.3418 17.0941 72.7692C16.8047 72.5823 16.5153 72.3952 16.1948 72.2261C12.9449 70.5255 7.59375 70.6992 7.59375 70.6992C7.59375 70.6992 9.95767 74.9105 13.212 76.6113C16.462 78.3119 20.148 78.1517 20.5932 77.4971C20.6466 77.4081 20.6598 77.2566 20.6421 77.083Z" fill="white"/>
<path d="M31.4194 84.749C31.4373 84.651 31.3972 84.5264 31.3304 84.3839C31.7934 83.5247 31.9937 81.1385 30.9698 78.8325C29.7634 76.1035 26.2286 73.7884 26.2286 73.7884C26.2286 73.7884 25.5608 77.9599 26.7716 80.6889C26.9363 81.0673 27.1322 81.4144 27.3371 81.7439C27.0655 81.6683 26.7894 81.5881 26.5 81.5391C23.5619 81.0183 19.6709 82.661 19.6709 82.661C19.6709 82.661 22.7605 85.5413 25.6988 86.0622C28.6325 86.5877 31.2993 85.4257 31.4194 84.749Z" fill="white"/>
<path d="M41.7232 87.3573C41.919 86.4714 41.4294 84.2943 39.8 82.5091C37.8724 80.3989 33.8568 79.2861 33.8568 79.2861C33.8568 79.2861 34.4088 83.1771 36.3366 85.2872C36.6036 85.5766 36.8841 85.8391 37.1735 86.0751C36.893 86.0795 36.6125 86.0839 36.3187 86.1152C33.3761 86.4357 30.1484 88.9332 30.1484 88.9332C30.1484 88.9332 33.9058 90.6738 36.8484 90.3533C39.7911 90.0328 41.9947 88.2878 41.9147 87.6556C41.9057 87.571 41.83 87.4641 41.7232 87.3573Z" fill="white"/>
</svg>
