<svg viewBox="0 0 50 50" fill="none" xmlns="http://www.w3.org/2000/svg">
<path fill-rule="evenodd" clip-rule="evenodd" d="M11.6075 0H16.6856V10.9491C16.6856 16.0396 13.6387 19.1056 8.38199 19.1056C2.91706 19.1056 0 15.9094 0 10.9491V0H5.07835V10.9732C5.07835 13.1593 6.32597 14.404 8.35602 14.404C10.3856 14.404 11.6075 13.1593 11.6075 10.9732V0ZM8.60239 37.9145L10.2101 38.3049C14.7442 39.3979 16.4111 41.4997 16.4111 44.1281C16.4111 47.5891 13.3206 50.0005 8.15412 50.0005C5.26303 50.0005 1.69929 48.7893 0.325439 46.2972L3.47401 43.7508C4.74878 45.0432 6.19123 45.8242 8.12768 45.8242C9.80332 45.8242 11.1343 45.2647 11.1343 44.2591C11.1343 43.4521 10.5264 43.1415 8.86582 42.7251L7.17875 42.3088C2.67109 41.1898 0.925191 38.6479 0.925191 36.2015C0.925191 33.0358 3.72554 30.355 8.62835 30.355C11.5292 30.355 14.4227 31.5845 15.7532 33.8096L12.6049 36.3563C11.5335 35.3912 10.228 34.6866 8.60239 34.6866C6.8472 34.6866 5.99092 35.4031 5.99092 36.0707C5.99092 36.9556 6.80956 37.4722 8.60239 37.9145ZM29.1169 30.895H45.2552V35.3038H39.736V49.4109H34.6362V35.3038H29.1169V30.895ZM40.7818 12.6796H33.5905V5.48828H40.7818V12.6796Z" fill="white"/>
</svg>
