<svg xmlns="http://www.w3.org/2000/svg" xml:space="preserve" viewBox="0 0 456.1 108.6"><path d="M140.4 1.1h33.3v10h-21.5v8.8h15.7v9.4h-15.7v18.8h-11.8zM190.9 46c-3.8-2.1-6.8-4.9-9.1-8.6-2.2-3.7-3.3-7.9-3.3-12.7s1.1-9 3.3-12.8c2.2-3.7 5.2-6.6 9.1-8.7 3.8-2.1 8.1-3.1 12.9-3.1 4.7 0 9 1 12.8 3.1s6.8 4.9 9 8.7c2.2 3.7 3.3 8 3.3 12.8s-1.1 9-3.3 12.7-5.2 6.6-9 8.6c-3.8 2.1-8.1 3.1-12.8 3.1-4.8 0-9.1-1.1-12.9-3.1m19.3-9.7c2-1.1 3.5-2.6 4.7-4.6s1.7-4.4 1.7-7-.6-5-1.7-7-2.7-3.5-4.7-4.6-4.2-1.6-6.6-1.6c-2.5 0-4.7.5-6.6 1.6-2 1.1-3.5 2.6-4.7 4.6-1.1 2-1.7 4.3-1.7 7s.6 5 1.7 7 2.7 3.6 4.7 4.6c2 1.1 4.2 1.6 6.6 1.6 2.5 0 4.7-.5 6.6-1.6m38.5 9.7c-3.8-2.1-6.8-4.9-9.1-8.6-2.2-3.7-3.3-7.9-3.3-12.7s1.1-9 3.3-12.8c2.2-3.7 5.2-6.6 9.1-8.7 3.8-2.1 8.1-3.1 12.9-3.1 4.7 0 9 1 12.8 3.1s6.8 4.9 9 8.7c2.2 3.7 3.3 8 3.3 12.8s-1.1 9-3.3 12.7-5.2 6.6-9 8.6c-3.8 2.1-8.1 3.1-12.8 3.1-4.8 0-9.1-1.1-12.9-3.1m19.4-9.7c2-1.1 3.5-2.6 4.7-4.6s1.7-4.4 1.7-7-.6-5-1.7-7-2.7-3.5-4.7-4.6-4.2-1.6-6.6-1.6c-2.5 0-4.7.5-6.6 1.6-2 1.1-3.5 2.6-4.7 4.6-1.1 2-1.7 4.3-1.7 7s.6 5 1.7 7 2.7 3.6 4.7 4.6c2 1.1 4.2 1.6 6.6 1.6s4.6-.5 6.6-1.6m27.7-35.2h16.8c5.1 0 9.6.9 13.5 2.8s6.8 4.6 8.9 8.1 3.1 7.6 3.1 12.3c0 7.8-2.3 13.7-6.8 17.7-4.6 4-10.9 6-19 6h-16.5zm17.6 37c4.1 0 7.2-1.2 9.4-3.7s3.3-5.8 3.3-10c0-3.8-1.1-7-3.3-9.5s-5.2-3.7-9-3.7h-6v26.9zm-173 22.5h33.2v10h-21.4v8.8h15.7v9.3h-15.7v8.8h21.4v10h-33.2zM198.7 84l-16.9-23.4h13.6l10.1 14 10.2-14h13.6l-17 23.4 17 23.5h-13.6l-10.2-14-10.2 14h-13.6zM239 60.6h20.7c5.5 0 9.8 1.4 13.1 4.3s4.9 6.9 4.9 12c0 5.3-1.6 9.4-4.9 12.2-3.2 2.9-7.6 4.3-13.1 4.3h-8.8v14H239zm18.8 22.9c2.4 0 4.2-.5 5.6-1.5s2-2.7 2-5.1-.7-4.1-2-5-3.2-1.3-5.6-1.3h-6.9v12.9zm28.9-22.9H320v10h-21.4v8.8h15.6v9.3h-15.6v8.8H320v10h-33.3zm102.4 10h-13.2v-10h38.4v10H401v36.9h-11.9zm39.3 37.1c-2.9-.6-5.3-1.3-7.2-2.3V94.7c2.4 1.3 4.9 2.2 7.5 2.8q3.9.9 7.5.9c2.2 0 3.8-.3 5-1 1.1-.7 1.7-1.6 1.7-2.9 0-.9-.3-1.8-.9-2.4-.6-.7-1.5-1.3-2.7-1.9s-3-1.4-5.4-2.4c-4.3-1.8-7.5-3.9-9.5-6.1s-3-5-3-8.3c0-2.7.8-5.1 2.3-7.2s3.6-3.7 6.3-4.9 5.8-1.7 9.3-1.7c2.9 0 5.4.2 7.7.7 2.2.4 4.4 1.2 6.4 2.1v10.4c-3.9-2.1-7.9-3.1-11.9-3.1-2.1 0-3.9.3-5.1 1-1.3.7-1.9 1.7-1.9 3s.7 2.3 1.9 3.2q1.95 1.2 7.2 3.3c3.2 1.3 5.7 2.6 7.4 3.8 1.8 1.3 3.1 2.7 3.9 4.4q1.2 2.55 1.2 6.3c0 4.3-1.6 7.7-4.7 10.2-3.2 2.4-7.9 3.7-14.1 3.7-3-.1-6-.4-8.9-.9m-61-22.1c1.5-2.5 2.3-5.4 2.3-8.9 0-5.2-1.6-9.2-4.7-11.9q-4.65-4.2-12.9-4.2H331v46.9h11.9v-37h7.1c2.4 0 4.3.4 5.5 1.3 1.3.9 1.9 2.5 1.9 4.8 0 2.2-.6 3.8-1.9 4.7s-3.1 1.4-5.5 1.4h-5.4l12.4 24.7h12.2L360.9 91c2.8-1.1 4.9-2.9 6.5-5.4" style="fill:#002856"/><path d="M32.4 16.2c0 8.9-7.2 16.2-16.2 16.2S0 25.1 0 16.2C0 7.2 7.2 0 16.2 0c8.9 0 16.2 7.2 16.2 16.2m37.9 0c0 8.9-7.2 16.2-16.2 16.2-8.9 0-16.2-7.2-16.2-16.2C38 7.2 45.2 0 54.2 0c8.9 0 16.1 7.2 16.1 16.2m-37.9 38c0 8.9-7.2 16.2-16.2 16.2C7.2 70.3 0 63.1 0 54.2 0 45.2 7.2 38 16.2 38c8.9 0 16.2 7.2 16.2 16.2m75.9-38c0 8.9-7.2 16.2-16.2 16.2-8.9 0-16.2-7.2-16.2-16.2C76 7.2 83.2 0 92.1 0c9 0 16.2 7.2 16.2 16.2m-38 38c0 8.9-7.2 16.2-16.2 16.2-8.9 0-16.2-7.2-16.2-16.2.1-9 7.3-16.2 16.3-16.2 8.9 0 16.1 7.2 16.1 16.2M32.4 92.3c0 8.9-7.2 16.2-16.2 16.2-9-.1-16.2-7.3-16.2-16.2s7.2-16.2 16.2-16.2c8.9 0 16.2 7.2 16.2 16.2" style="fill:#f18a00"/></svg>