<?xml version="1.0" encoding="utf-8"?>
<svg version="1.1" id="Capa_1" xmlns="http://www.w3.org/2000/svg" xmlns:xlink="http://www.w3.org/1999/xlink" x="0px" y="0px"
	 viewBox="0 0 456.1 108.6" style="enable-background:new 0 0 456.1 108.6;" xml:space="preserve">
<style type="text/css">
	.st0{fill:#002856;}
	.st1{fill:#F18A00;}
</style>
<polygon class="st0" points="140.4,1.1 173.7,1.1 173.7,11.1 152.2,11.1 152.2,19.9 167.9,19.9 167.9,29.3 152.2,29.3 152.2,48.1 
	140.4,48.1 "/>
<path class="st0" d="M190.9,46c-3.8-2.1-6.8-4.9-9.1-8.6c-2.2-3.7-3.3-7.9-3.3-12.7s1.1-9,3.3-12.8c2.2-3.7,5.2-6.6,9.1-8.7
	c3.8-2.1,8.1-3.1,12.9-3.1c4.7,0,9,1,12.8,3.1s6.8,4.9,9,8.7c2.2,3.7,3.3,8,3.3,12.8s-1.1,9-3.3,12.7s-5.2,6.6-9,8.6
	c-3.8,2.1-8.1,3.1-12.8,3.1C199,49.1,194.7,48,190.9,46 M210.2,36.3c2-1.1,3.5-2.6,4.7-4.6s1.7-4.4,1.7-7s-0.6-5-1.7-7
	c-1.1-2-2.7-3.5-4.7-4.6s-4.2-1.6-6.6-1.6c-2.5,0-4.7,0.5-6.6,1.6c-2,1.1-3.5,2.6-4.7,4.6c-1.1,2-1.7,4.3-1.7,7s0.6,5,1.7,7
	c1.1,2,2.7,3.6,4.7,4.6c2,1.1,4.2,1.6,6.6,1.6C206.1,37.9,208.3,37.4,210.2,36.3"/>
<path class="st0" d="M248.7,46c-3.8-2.1-6.8-4.9-9.1-8.6c-2.2-3.7-3.3-7.9-3.3-12.7s1.1-9,3.3-12.8c2.2-3.7,5.2-6.6,9.1-8.7
	c3.8-2.1,8.1-3.1,12.9-3.1c4.7,0,9,1,12.8,3.1s6.8,4.9,9,8.7c2.2,3.7,3.3,8,3.3,12.8s-1.1,9-3.3,12.7c-2.2,3.7-5.2,6.6-9,8.6
	c-3.8,2.1-8.1,3.1-12.8,3.1C256.8,49.1,252.5,48,248.7,46 M268.1,36.3c2-1.1,3.5-2.6,4.7-4.6s1.7-4.4,1.7-7s-0.6-5-1.7-7
	s-2.7-3.5-4.7-4.6s-4.2-1.6-6.6-1.6c-2.5,0-4.7,0.5-6.6,1.6c-2,1.1-3.5,2.6-4.7,4.6c-1.1,2-1.7,4.3-1.7,7s0.6,5,1.7,7
	c1.1,2,2.7,3.6,4.7,4.6c2,1.1,4.2,1.6,6.6,1.6C263.9,37.9,266.1,37.4,268.1,36.3"/>
<path class="st0" d="M295.8,1.1h16.8c5.1,0,9.6,0.9,13.5,2.8s6.8,4.6,8.9,8.1s3.1,7.6,3.1,12.3c0,7.8-2.3,13.7-6.8,17.7
	c-4.6,4-10.9,6-19,6h-16.5V1.1z M313.4,38.1c4.1,0,7.2-1.2,9.4-3.7c2.2-2.5,3.3-5.8,3.3-10c0-3.8-1.1-7-3.3-9.5
	c-2.2-2.5-5.2-3.7-9-3.7h-6v26.9H313.4z"/>
<polygon class="st0" points="140.4,60.6 173.6,60.6 173.6,70.6 152.2,70.6 152.2,79.4 167.9,79.4 167.9,88.7 152.2,88.7 152.2,97.5 
	173.6,97.5 173.6,107.5 140.4,107.5 "/>
<polygon class="st0" points="198.7,84 181.8,60.6 195.4,60.6 205.5,74.6 215.7,60.6 229.3,60.6 212.3,84 229.3,107.5 215.7,107.5 
	205.5,93.5 195.3,107.5 181.7,107.5 "/>
<path class="st0" d="M239,60.6h20.7c5.5,0,9.8,1.4,13.1,4.3c3.3,2.9,4.9,6.9,4.9,12c0,5.3-1.6,9.4-4.9,12.2
	c-3.2,2.9-7.6,4.3-13.1,4.3h-8.8v14H239V60.6z M257.8,83.5c2.4,0,4.2-0.5,5.6-1.5s2-2.7,2-5.1s-0.7-4.1-2-5s-3.2-1.3-5.6-1.3h-6.9
	v12.9H257.8z"/>
<polygon class="st0" points="286.7,60.6 320,60.6 320,70.6 298.6,70.6 298.6,79.4 314.2,79.4 314.2,88.7 298.6,88.7 298.6,97.5 
	320,97.5 320,107.5 286.7,107.5 "/>
<polygon class="st0" points="389.1,70.6 375.9,70.6 375.9,60.6 414.3,60.6 414.3,70.6 401,70.6 401,107.5 389.1,107.5 "/>
<path class="st0" d="M428.4,107.7c-2.9-0.6-5.3-1.3-7.2-2.3V94.7c2.4,1.3,4.9,2.2,7.5,2.8c2.6,0.6,5.1,0.9,7.5,0.9
	c2.2,0,3.8-0.3,5-1c1.1-0.7,1.7-1.6,1.7-2.9c0-0.9-0.3-1.8-0.9-2.4c-0.6-0.7-1.5-1.3-2.7-1.9s-3-1.4-5.4-2.4
	c-4.3-1.8-7.5-3.9-9.5-6.1s-3-5-3-8.3c0-2.7,0.8-5.1,2.3-7.2s3.6-3.7,6.3-4.9c2.7-1.2,5.8-1.7,9.3-1.7c2.9,0,5.4,0.2,7.7,0.7
	c2.2,0.4,4.4,1.2,6.4,2.1v10.4c-3.9-2.1-7.9-3.1-11.9-3.1c-2.1,0-3.9,0.3-5.1,1c-1.3,0.7-1.9,1.7-1.9,3s0.7,2.3,1.9,3.2
	c1.3,0.8,3.7,1.9,7.2,3.3c3.2,1.3,5.7,2.6,7.4,3.8c1.8,1.3,3.1,2.7,3.9,4.4c0.8,1.7,1.2,3.8,1.2,6.3c0,4.3-1.6,7.7-4.7,10.2
	c-3.2,2.4-7.9,3.7-14.1,3.7C434.3,108.5,431.3,108.2,428.4,107.7"/>
<path class="st0" d="M367.4,85.6c1.5-2.5,2.3-5.4,2.3-8.9c0-5.2-1.6-9.2-4.7-11.9c-3.1-2.8-7.4-4.2-12.9-4.2H331v46.9h11.9V92.8v-10
	v-1.3v-11h7.1c2.4,0,4.3,0.4,5.5,1.3c1.3,0.9,1.9,2.5,1.9,4.8c0,2.2-0.6,3.8-1.9,4.7c-1.3,0.9-3.1,1.4-5.5,1.4h-5.4l12.4,24.7h12.2
	L360.9,91C363.7,89.9,365.8,88.1,367.4,85.6"/>
<path class="st1" d="M32.4,16.2c0,8.9-7.2,16.2-16.2,16.2S0,25.1,0,16.2C0,7.2,7.2,0,16.2,0C25.1,0,32.4,7.2,32.4,16.2"/>
<path class="st1" d="M70.3,16.2c0,8.9-7.2,16.2-16.2,16.2c-8.9,0-16.2-7.2-16.2-16.2C38,7.2,45.2,0,54.2,0
	C63.1,0,70.3,7.2,70.3,16.2"/>
<path class="st1" d="M32.4,54.2c0,8.9-7.2,16.2-16.2,16.2C7.2,70.3,0,63.1,0,54.2C0,45.2,7.2,38,16.2,38
	C25.1,38,32.4,45.2,32.4,54.2"/>
<path class="st1" d="M108.3,16.2c0,8.9-7.2,16.2-16.2,16.2c-8.9,0-16.2-7.2-16.2-16.2C76,7.2,83.2,0,92.1,0
	C101.1,0,108.3,7.2,108.3,16.2"/>
<path class="st1" d="M70.3,54.2c0,8.9-7.2,16.2-16.2,16.2c-8.9,0-16.2-7.2-16.2-16.2C38,45.2,45.2,38,54.2,38
	C63.1,38,70.3,45.2,70.3,54.2"/>
<path class="st1" d="M32.4,92.3c0,8.9-7.2,16.2-16.2,16.2C7.2,108.4,0,101.2,0,92.3s7.2-16.2,16.2-16.2
	C25.1,76.1,32.4,83.3,32.4,92.3"/>
</svg>
