<svg xmlns="http://www.w3.org/2000/svg" fill="none" viewBox="0 0 50 50"><path fill="#fff" fill-rule="evenodd" d="M11.608 0h5.078v10.95c0 5.09-3.047 8.156-8.304 8.156C2.917 19.106 0 15.909 0 10.949V0h5.078v10.973c0 2.186 1.248 3.431 3.278 3.431s3.252-1.245 3.252-3.43zM8.602 37.915l1.608.39c4.534 1.093 6.201 3.195 6.201 5.823 0 3.461-3.09 5.873-8.257 5.873C5.263 50 1.7 48.789.325 46.297l3.149-2.546c1.275 1.292 2.717 2.073 4.654 2.073 1.675 0 3.006-.56 3.006-1.565 0-.807-.608-1.117-2.268-1.534l-1.687-.416C2.67 41.189.925 38.648.925 36.202c0-3.166 2.8-5.847 7.703-5.847 2.901 0 5.795 1.23 7.125 3.455l-3.148 2.546c-1.072-.965-2.377-1.67-4.003-1.67-1.755 0-2.611.717-2.611 1.385 0 .885.819 1.401 2.611 1.843m20.515-7.02h16.138v4.409h-5.519V49.41h-5.1V35.304h-5.52zM40.782 12.68H33.59V5.488h7.19z" clip-rule="evenodd"/></svg>